<?xml version="1.0" encoding="UTF-8" standalone="no"?>
<svg
   xmlns:dc="http://purl.org/dc/elements/1.1/"
   xmlns:cc="http://creativecommons.org/ns#"
   xmlns:rdf="http://www.w3.org/1999/02/22-rdf-syntax-ns#"
   xmlns:svg="http://www.w3.org/2000/svg"
   xmlns="http://www.w3.org/2000/svg"
   xmlns:sodipodi="http://sodipodi.sourceforge.net/DTD/sodipodi-0.dtd"
   xmlns:inkscape="http://www.inkscape.org/namespaces/inkscape"
   version="1.1"
   id="Layer_1"
   x="0px"
   y="0px"
   width="150"
   height="150"
   viewBox="5 -10 150 202.50001"
   enable-background="new 0 0 100 100"
   xml:space="preserve"
   inkscape:version="0.91 r13725"
   sodipodi:docname="logo.svg"><metadata
     id="metadata4198"><rdf:RDF><cc:Work
         rdf:about=""><dc:format>image/svg+xml</dc:format><dc:type
           rdf:resource="http://purl.org/dc/dcmitype/StillImage" /><dc:title></dc:title></cc:Work></rdf:RDF></metadata><defs
     id="defs4196" /><sodipodi:namedview
     pagecolor="#ffffff"
     bordercolor="#666666"
     borderopacity="1"
     objecttolerance="10"
     gridtolerance="10"
     guidetolerance="10"
     inkscape:pageopacity="0"
     inkscape:pageshadow="2"
     inkscape:window-width="1282"
     inkscape:window-height="803"
     id="namedview4194"
     showgrid="false"
     fit-margin-top="0"
     fit-margin-left="0"
     fit-margin-right="0"
     fit-margin-bottom="0"
     inkscape:zoom="1"
     inkscape:cx="58.299991"
     inkscape:cy="53.439848"
     inkscape:window-x="322"
     inkscape:window-y="75"
     inkscape:window-maximized="0"
     inkscape:current-layer="Layer_1" /><path
     d="m -21.2499,128.60512 0,-9.74024 c 1.374973,-0.52042 2.468471,-0.97605 3.420219,-1.28385 4.072269,-1.30814 3.539695,-4.79721 3.539695,-4.79721 l 0,-14.693375 0,-12.9458 0,-14.69338 c 0,0 0.532574,-3.49109 -3.539695,-4.79924 -0.951748,-0.30578 -2.045246,-0.7614 -3.418194,-1.28385 0,0 0,-9.91033 0,-9.90831 1.407373,-0.73305 1.164373,-1.83667 1.164373,-2.58187 0,-0.74317 0.243,-1.8468 -1.162348,-2.57782 l -0.004,-0.002 0,-6.538718 202.49965,0 0,6.538718 -0.004,0.002 c -1.40333,0.73102 -1.16033,1.83465 -1.16033,2.57782 0,0.7452 -0.24097,1.84882 1.16438,2.57985 l 0,10.0217 -0.002,0 c -1.2393,0.47183 -2.2437,0.88695 -3.1266,1.17045 -4.07429,1.30815 -3.54172,4.79925 -3.54172,4.79925 l 0,14.69337 0,12.9458 0,14.695405 c 0,0 -0.53257,3.4911 3.54172,4.79924 0.8829,0.28552 1.88932,0.69862 3.12862,1.17247 l 0,9.84959 -0.004,0 c -1.40332,0.73305 -1.16032,1.83465 -1.16032,2.57782 0,0.74318 -0.24705,1.84477 1.15425,2.57579 l 0.0101,0 0,5.98184 -202.499645,0 0,-5.98184 0.01013,0 c 1.401298,-0.73102 1.154248,-1.83261 1.154248,-2.57579 0,-0.74317 0.243,-1.84477 -1.162348,-2.57782 l -0.002,0 z m 108.983282,-30.514675 0,14.693375 c 0,0 -0.534599,3.4911 3.539694,4.79924 4.074293,1.30815 10.764884,5.38244 30.986494,5.38244 20.22162,0 29.53053,0 29.53053,0 0,0 7.78408,0.2916 7.78408,-5.45534 0,-6.90928 0,-18.546945 0,-35.131665 l 0,-5.96159 c 0,0 0,-4.94504 0,-10.69198 0,-5.74492 -7.78408,-5.45332 -7.78408,-5.45332 0,0 -9.31094,0 -29.53053,0 -20.21959,0 -26.912201,4.07429 -30.986494,5.38244 -4.074293,1.30815 -3.539694,4.79925 -3.539694,4.79925 l 0,14.69337 0,12.94378 z m -15.466922,-12.9458 0,-14.69338 c 0,0 0.534599,-3.49109 -3.539694,-4.79924 -4.074293,-1.30815 -10.762854,-5.38244 -30.986494,-5.38244 -20.219589,0 -29.5305226,0 -29.5305226,0 0,0 -7.78206172,-0.2916 -7.78206172,5.45331 0,6.91132 0,18.54897 0,35.133695 l 0,5.96159 c 0,0 0,4.94505 0,10.68995 0,5.74694 7.78408672,5.45534 7.78408672,5.45534 0,0 9.3109336,0 29.5305226,0 20.221615,0 26.912201,-4.07429 30.986494,-5.38244 4.074293,-1.30814 3.539694,-4.79923 3.539694,-4.79923 l 0,-14.693385 0,-12.94377 z"
     id="path4188"
     inkscape:connector-curvature="0"
     style="fill:#4d4d4d" /></svg>